<?xml version="1.0" ?><svg fill="none" height="24" viewBox="0 0 24 24" width="24" xmlns="http://www.w3.org/2000/svg"><path clip-rule="evenodd" d="M8.96127 4.29889C10.0954 1.56703 13.9046 1.56704 15.0388 4.2989L15.6504 5.77226C15.9079 6.39234 16.4682 6.81277 17.1072 6.88518L18.8141 7.07862C21.6236 7.39699 22.7352 10.8906 20.7228 12.8378L19.2736 14.2402C18.8215 14.6776 18.6178 15.327 18.7426 15.9591L19.0926 17.7305C19.6554 20.5797 16.584 22.8221 14.0964 21.2237L12.9517 20.4881C12.3692 20.1139 11.6308 20.1139 11.0483 20.4881L9.90363 21.2237C7.416 22.8221 4.34462 20.5797 4.90746 17.7305L5.25738 15.9591C5.38224 15.327 5.1785 14.6776 4.72645 14.2402L3.27719 12.8378C1.26477 10.8906 2.37643 7.39699 5.1859 7.07862L6.89282 6.88518C7.53183 6.81277 8.09217 6.39234 8.34959 5.77226L8.96127 4.29889ZM13.6534 4.87403C13.0312 3.37532 10.9688 3.37532 10.3466 4.87403L9.73495 6.34739C9.27311 7.45985 8.25428 8.2405 7.06172 8.37564L5.3548 8.56908C3.85302 8.73926 3.18401 10.6604 4.32025 11.7599L5.76952 13.1622C6.59187 13.9579 6.95123 15.1245 6.72894 16.2498L6.37902 18.0212C6.05602 19.6563 7.78869 20.7997 9.09277 19.9617L10.2375 19.2262C11.3139 18.5345 12.6861 18.5345 13.7625 19.2262L14.9072 19.9617C16.2113 20.7997 17.944 19.6563 17.621 18.0212L17.2711 16.2498C17.0488 15.1245 17.4082 13.9579 18.2305 13.1622L19.6798 11.7599C20.816 10.6604 20.147 8.73926 18.6452 8.56908L16.9383 8.37564C15.7457 8.2405 14.7269 7.45985 14.2651 6.3474L13.6534 4.87403Z" fill="black" fill-rule="evenodd"/></svg>